# xmcd CD database file
#
# Track frame offsets:
#	150
#	14877
#	55790
#	332550
#
# Disc length: 4440 seconds
#
# Revision: 0
# Processed by: cddbd v1.5.1PL0 Copyright (c) Steve Scherf et al.
# Submitted via: CDex 1.51
#
DISCID=31115604
DTITLE=佐野元春 - 月夜を往け
DYEAR=2004
DGENRE=Rock
TTITLE0=月夜を往け
TTITLE1=99ブルース　(H.K.B.Version)
TTITLE2=データ
TTITLE3=データ
EXTD=YEAR: 2004
EXTT0=
EXTT1=
EXTT2=
EXTT3=
PLAYORDER=
